<svg xmlns="http://www.w3.org/2000/svg" width="512" height="512" viewBox="0 0 512 512" version="1.1">
	<path d="M 344 48.409 C 344 51.982, 335.324 68.484, 329.645 75.712 C 327.017 79.058, 322.139 83.979, 318.807 86.648 L 312.748 91.500 317.624 92.162 C 320.306 92.527, 324.959 92.864, 327.964 92.912 C 332.887 92.991, 333.276 93.153, 331.887 94.541 C 331.039 95.389, 327.683 97.165, 324.428 98.488 L 318.510 100.893 324.505 103.601 L 330.500 106.309 326.009 107.661 C 320.381 109.355, 313.944 108.299, 303.939 104.042 C 295.227 100.335, 293.940 100.243, 297.049 103.553 C 299.072 105.705, 299.217 106.251, 297.974 107.037 C 297.163 107.550, 296.050 107.997, 295.500 108.031 C 294.950 108.065, 296.525 109.153, 299 110.449 C 301.475 111.744, 304.625 114.036, 306 115.541 L 308.500 118.278 301 117.613 L 293.500 116.947 296.556 120.011 C 298.237 121.696, 303.412 125.101, 308.056 127.579 L 316.500 132.083 309.500 131.746 C 302.810 131.423, 301.976 131.088, 290.658 124.176 C 284.146 120.198, 273.573 113.379, 267.163 109.023 L 255.510 101.102 252.806 102.801 C 251.318 103.736, 241.978 110.035, 232.049 116.800 C 211.557 130.761, 207.335 132.958, 201 132.952 L 196.500 132.947 203.500 129.199 C 207.350 127.137, 212.480 123.999, 214.900 122.225 L 219.300 119 211.591 119 C 206.996 119, 204.118 118.618, 204.467 118.053 C 204.789 117.533, 208.451 115.173, 212.605 112.809 C 220.098 108.546, 220.133 108.507, 217.028 107.872 C 212.493 106.944, 212.316 106.333, 215.573 102.835 C 217.183 101.106, 217.825 99.957, 217 100.282 C 216.175 100.607, 211.863 102.474, 207.419 104.432 C 202.974 106.390, 197.271 108.275, 194.746 108.621 C 189.440 109.349, 181 108.315, 181 106.939 C 181 106.422, 181.437 106, 181.971 106 C 182.506 106, 185.543 104.814, 188.721 103.366 L 194.500 100.731 190.416 99.477 C 184.975 97.806, 180 95.178, 180 93.974 C 180 93.438, 181.688 92.996, 183.750 92.991 C 185.813 92.987, 189.843 92.701, 192.708 92.357 L 197.915 91.731 190.398 84.711 C 179.777 74.793, 170.997 61.630, 166.443 48.797 C 165.877 47.204, 165.454 49.551, 165.064 56.450 L 164.500 66.401 156.562 72.450 L 148.624 78.500 152.394 78.815 C 155.315 79.060, 156.030 79.478, 155.571 80.676 C 155.090 81.928, 155.635 82.145, 158.440 81.817 C 161.351 81.477, 161.713 81.640, 160.716 82.843 C 158.791 85.162, 152.617 88.736, 148.634 89.835 C 146.118 90.530, 142.840 90.531, 138.390 89.838 C 134.791 89.278, 131.621 89.046, 131.345 89.322 C 131.069 89.598, 132.903 91.031, 135.421 92.507 C 137.940 93.983, 140 95.577, 140 96.050 C 140 96.523, 138.425 97.205, 136.500 97.566 C 132.463 98.323, 132.219 98.983, 135.035 101.532 C 136.155 102.545, 136.864 103.912, 136.612 104.569 C 136.357 105.234, 137.922 106.563, 140.134 107.561 C 143.287 108.982, 143.791 109.537, 142.558 110.228 C 139.225 112.093, 141.220 112.904, 147.657 112.303 C 154.832 111.633, 155.614 112.668, 149.771 115.103 L 146.500 116.466 149.500 117.115 C 151.150 117.471, 154.675 117.817, 157.333 117.882 C 162.814 118.016, 163.165 119.415, 158.415 122.190 C 152.507 125.640, 144.133 127, 128.790 127 C 116.798 127, 114 127.264, 114 128.396 C 114 130.120, 119.651 135.170, 124.995 138.221 C 129.141 140.589, 130.076 142, 127.500 142 C 125.084 142, 125.776 143.964, 128.565 145.025 C 129.976 145.561, 132.690 146, 134.596 146 C 136.503 146, 138.283 146.574, 138.552 147.274 C 138.871 148.107, 140.421 148.417, 143.020 148.169 C 156.274 146.905, 133.669 157.398, 115.500 160.943 C 111.715 161.682, 108.489 161.530, 102.225 160.318 C 97.674 159.437, 93.668 158.999, 93.322 159.344 C 92.977 159.689, 93.922 160.938, 95.423 162.118 C 97.486 163.741, 98.007 164.835, 97.562 166.609 C 97.084 168.514, 97.446 169.074, 99.487 169.586 C 101.872 170.185, 103.120 173, 101 173 C 100.450 173, 100 173.422, 100 173.937 C 100 174.458, 101.666 174.613, 103.750 174.287 C 107.424 173.711, 107.464 173.739, 105.750 175.678 C 103.137 178.633, 103.592 179.245, 107.864 178.523 C 110.630 178.056, 112.145 178.288, 113.199 179.342 C 114.480 180.623, 115.438 180.634, 120.586 179.423 C 123.838 178.657, 127.625 178.043, 129 178.056 C 131.461 178.081, 131.447 178.127, 128.078 181.007 C 123.737 184.719, 114.781 189.379, 99.289 195.989 C 87.820 200.882, 82 204.564, 82 206.928 C 82 207.612, 82.848 207.628, 84.565 206.975 C 88.005 205.667, 89 205.746, 89 207.327 C 89 208.252, 89.984 208.514, 92.250 208.191 L 95.500 207.728 93.500 209.997 L 91.500 212.266 93.500 211.680 C 94.600 211.358, 96.850 210.825, 98.500 210.496 L 101.500 209.896 98.920 211.391 C 88.070 217.677, 75.252 220.367, 67.177 218.051 C 63.011 216.856, 63.379 217.846, 68.765 222.322 L 73.029 225.866 70.792 227.433 C 69.562 228.295, 67.755 229, 66.777 229 C 64.098 229, 64.634 230.353, 68.134 232.420 C 70.799 233.994, 71.023 234.408, 69.634 235.185 C 66.070 237.180, 67.978 238.280, 74.047 237.729 C 82.215 236.989, 80.738 238.596, 68.744 243.499 C 56.015 248.702, 43.160 255.372, 38.989 258.937 L 35.500 261.919 40.405 261.959 L 45.310 262 43.405 264.133 C 41.527 266.235, 41.528 266.257, 43.500 265.680 C 51.354 263.382, 51.541 263.738, 45 268.540 C 41.425 271.165, 32.538 278.045, 25.250 283.831 C 15.065 291.916, 12 294.888, 12 296.675 L 12 299 34.155 299 L 56.310 299 54.405 301.145 C 53.357 302.325, 50.347 305.005, 47.715 307.101 C 45.084 309.198, 42.834 311.270, 42.715 311.706 C 42.597 312.143, 48.350 312.725, 55.500 313 L 68.500 313.500 68.800 319.250 C 69.070 324.425, 68.901 325, 67.109 325 C 64.182 325, 63.876 326.267, 65.970 329.711 C 67.711 332.574, 68.391 335.053, 68.115 337.540 C 68.052 338.112, 65.750 339.894, 63 341.500 C 60.250 343.106, 58 344.755, 58 345.165 C 58 345.574, 59.569 346.204, 61.487 346.563 L 64.973 347.218 59.237 350.995 C 56.082 353.072, 51.925 356.155, 50 357.845 C 45.868 361.474, 46.063 361.509, 59.500 359.568 C 64.450 358.853, 68.650 358.396, 68.834 358.552 C 69.018 358.707, 65.471 361.909, 60.952 365.667 C 56.434 369.425, 51.333 373.756, 49.618 375.291 L 46.500 378.083 55.250 377.423 C 60.063 377.060, 64 377.105, 64 377.521 C 64 378.535, 61.835 380.220, 53.500 385.693 C 43.245 392.426, 35.170 398.814, 33.890 401.205 C 32.904 403.048, 32.995 403.215, 34.634 402.582 C 39.652 400.641, 42.107 400.694, 42.646 402.755 C 43.172 404.765, 43.227 404.762, 49.261 402.398 C 52.608 401.086, 55.530 400.197, 55.755 400.422 C 56.135 400.802, 45.927 408.188, 27.647 420.759 C 23.441 423.652, 20 426.464, 20 427.009 C 20 427.629, 27.220 428, 39.300 428 C 58.465 428, 61 428.411, 61 431.516 C 61 432.130, 59.312 433.588, 57.250 434.757 C 53.110 437.103, 41.298 448.631, 42.155 449.488 C 43.153 450.487, 56.262 445.855, 72.446 438.787 C 81.276 434.930, 89.690 431.556, 91.145 431.289 C 92.775 430.990, 97.186 432.134, 102.645 434.270 C 107.515 436.177, 115.250 438.971, 119.833 440.478 L 128.165 443.219 140.333 437.507 C 147.025 434.365, 153.876 431.571, 155.558 431.297 C 158.929 430.750, 166.119 432.778, 184.767 439.539 L 197.075 444 256.340 444 L 315.606 444 325.053 441.519 C 337.565 438.232, 340.180 438.340, 348.860 442.500 C 357.362 446.575, 357.570 446.600, 361.453 444.040 C 364.542 442.004, 364.382 441.799, 358.750 440.564 C 355.559 439.865, 355.139 437.531, 357.934 436.035 C 361.431 434.164, 366.425 434.883, 371.273 437.958 C 381.774 444.618, 380.756 444.539, 391.119 439.495 C 396.199 437.023, 401.368 435, 402.606 435 C 406.216 435, 408.266 437.767, 407.537 441.654 C 406.719 446.015, 407.471 445.983, 419.730 441.141 C 425.103 439.018, 430.682 436.998, 432.127 436.652 C 435.194 435.918, 441.446 437.922, 456.375 444.423 C 470.927 450.759, 471.951 450.498, 464.605 442.328 C 462.149 439.596, 457.959 436.386, 455.105 435.049 C 452.297 433.734, 450 432.049, 450 431.304 C 450 428.630, 455.347 427.915, 473.178 428.208 C 486.678 428.429, 491.002 428.205, 491.001 427.282 C 491.001 426.613, 488.637 424.335, 485.750 422.222 C 467.736 409.036, 460.935 403.780, 456.500 399.619 L 451.500 394.927 458.725 398.464 C 465.979 402.014, 469.399 402.781, 470.444 401.091 C 470.772 400.560, 473.295 400.714, 476.503 401.460 C 479.526 402.162, 482 402.401, 482 401.990 C 482 400.774, 472.187 392.825, 462.170 385.926 L 452.839 379.500 460.420 379.208 C 464.589 379.047, 468 378.566, 468 378.138 C 468 377.711, 464.288 374.804, 459.750 371.679 C 451.659 366.108, 447.002 362.515, 446.998 361.840 C 446.996 361.653, 450.934 361.635, 455.748 361.799 L 464.500 362.099 459.500 358.469 C 456.750 356.473, 453.221 354.167, 451.657 353.346 C 448.105 351.480, 448.808 350.735, 454.792 350.021 L 459.500 349.460 452.139 344.509 C 445.066 339.753, 444.861 339.504, 446.889 338.158 C 449.606 336.353, 449.635 332.076, 446.951 328.665 C 445.285 326.546, 444.959 324.891, 445.201 319.781 L 445.500 313.500 458.500 312.864 C 465.650 312.514, 471.950 312.170, 472.500 312.099 C 473.050 312.027, 470.800 310.428, 467.500 308.545 C 464.200 306.662, 459.925 303.762, 458 302.101 L 454.500 299.081 477.250 299.041 L 500 299 500 296.696 C 500 294.035, 497.420 291.467, 483.500 280.272 C 467.561 267.453, 464.771 263.462, 473.417 265.849 C 481.963 268.209, 471.755 259.834, 453.443 249.462 C 441.245 242.553, 432.910 237.166, 436.500 238.512 C 437.600 238.924, 440.971 239.492, 443.992 239.774 C 449.261 240.267, 449.423 240.211, 447.992 238.405 C 444.955 234.574, 442.390 232.166, 438.100 229.122 C 433.443 225.817, 433.317 225.090, 437.800 227.380 C 439.285 228.138, 442.075 229.081, 444 229.475 L 447.500 230.190 444.126 227.310 L 440.752 224.430 444.876 221.701 C 447.144 220.200, 449 218.788, 449 218.563 C 449 218.338, 445.715 218.403, 441.700 218.706 C 433.571 219.321, 431.391 218.573, 422.540 212.131 L 417.580 208.521 421.540 207.841 C 423.718 207.468, 426.625 207.379, 428 207.646 C 430.220 208.075, 430.023 207.686, 426.241 204.171 C 423.345 201.479, 418.694 198.891, 411.697 196.079 C 400.638 191.635, 385.488 183.301, 382.536 180.040 C 380.782 178.102, 380.928 178.110, 386.848 180.266 C 392.096 182.177, 393.277 182.308, 395.087 181.177 C 396.498 180.297, 398.580 180.084, 401.350 180.538 L 405.500 181.218 402.563 178.109 L 399.626 175 403.719 175 C 407.135 175, 407.737 174.708, 407.352 173.240 C 407.023 171.981, 407.782 171.143, 410.019 170.299 C 412.302 169.437, 413.059 168.582, 412.823 167.130 C 412.634 165.968, 413.717 163.868, 415.427 162.081 C 417.037 160.398, 418.162 158.835, 417.927 158.607 C 417.692 158.379, 413.900 159.093, 409.500 160.193 C 399.932 162.586, 395.977 162.264, 383 158.033 C 374.107 155.133, 363 148.913, 363 146.832 C 363 146.324, 364.913 145.950, 367.250 146.002 C 372.373 146.115, 383.706 144.628, 384.610 143.723 C 384.967 143.367, 384.092 142.543, 382.666 141.894 L 380.074 140.713 383.800 138.869 C 385.849 137.855, 389.770 135.015, 392.513 132.558 C 397.147 128.406, 397.323 128.083, 395 127.999 C 363.980 126.872, 354.033 125.182, 347.791 119.977 L 345.500 118.067 351 118.020 C 354.025 117.994, 357.553 117.691, 358.840 117.346 L 361.181 116.719 358.340 114.429 L 355.500 112.138 361.775 112.211 C 368.725 112.292, 370.535 111.541, 366.895 110.085 C 364.795 109.245, 364.746 109.119, 366.500 109.062 C 369.268 108.972, 379.042 99.012, 376.405 98.968 C 374.486 98.936, 371 96.806, 371 95.665 C 371 95.327, 372.462 95.258, 374.250 95.511 C 376.842 95.880, 377.003 95.817, 375.043 95.202 L 372.587 94.430 375.851 92.106 C 377.646 90.828, 378.925 89.592, 378.692 89.359 C 378.460 89.127, 375.099 89.460, 371.223 90.100 C 364.698 91.178, 363.856 91.104, 359.838 89.104 C 357.452 87.916, 354 85.656, 352.167 84.080 L 348.834 81.216 354.917 80.510 C 358.263 80.121, 361 79.452, 361 79.022 C 361 78.593, 359.087 76.673, 356.750 74.757 C 345.691 65.691, 346 66.226, 346 56.158 C 346 51.186, 345.550 46.840, 345 46.500 C 344.434 46.150, 344 46.979, 344 48.409 M 242.807 139.194 C 214.192 162.920, 207.032 168.989, 197.027 178 C 191.226 183.225, 182.668 190.875, 178.010 195 C 160.244 210.733, 125.709 242.138, 106.500 260.029 C 95.500 270.274, 80.875 283.734, 74 289.939 C 54.404 307.626, 54.229 308, 65.532 308 C 69.788 308, 74.547 307.380, 76.474 306.575 C 78.412 305.766, 89.751 295.510, 102.734 282.824 C 129.188 256.977, 171.764 217.842, 200.500 192.959 C 220.749 175.425, 234.533 163.118, 247.793 150.735 L 255.087 143.923 257.907 146.212 C 276.935 161.651, 382.279 257.431, 411.480 285.842 C 421.920 295.999, 431.820 305.138, 433.480 306.151 C 437.601 308.664, 450.749 308.819, 451.690 306.366 C 452.428 304.442, 447.588 299.639, 412 266.980 C 328.696 190.531, 265.181 134.378, 257.152 130.081 C 255.366 129.125, 253.591 130.253, 242.807 139.194 M 228.750 195.080 C 226.579 196.344, 226.512 198.369, 228.571 200.429 C 229.916 201.773, 233.745 202, 255.096 202 L 280.050 202 280.997 199.509 C 283.083 194.021, 282.972 193.997, 255.643 194.030 C 240.433 194.049, 229.809 194.463, 228.750 195.080 M 291.200 195.200 C 288.356 198.044, 291.138 202.726, 294.952 201.515 C 297.612 200.671, 297.686 196.438, 295.066 195.035 C 292.655 193.745, 292.655 193.745, 291.200 195.200 M 214.250 195.651 C 212.436 196.399, 212.716 200.677, 214.627 201.410 C 216.840 202.259, 219.163 200.136, 218.798 197.598 C 218.499 195.512, 216.579 194.690, 214.250 195.651 M 292.223 209.557 C 290.028 211.094, 290 211.421, 290 235.857 C 290 253.768, 290.331 260.931, 291.200 261.800 C 292.681 263.281, 338.684 263.485, 341 262.021 C 342.119 261.314, 342.500 259.140, 342.500 253.467 C 342.500 245.862, 342.500 245.861, 338.475 242.181 C 326.389 231.130, 301.567 210.335, 299.220 209.295 C 295.607 207.695, 294.840 207.723, 292.223 209.557 M 206.603 213.750 C 203.582 216.363, 192.985 225.378, 183.055 233.785 L 165 249.070 165 254.835 C 165 258.006, 165.540 261.140, 166.200 261.800 C 167.069 262.669, 174.221 263, 192.093 263 C 213.687 263, 216.862 262.802, 217.393 261.418 C 217.727 260.548, 218 249.398, 218 236.641 C 218 217.265, 217.744 213.079, 216.443 211.223 C 214.214 208.040, 212.779 208.409, 206.603 213.750 M 230 209.694 C 226.279 211.024, 226 212.875, 226 236.257 C 226 250.113, 226.408 259.894, 227.035 261.066 C 228.016 262.899, 229.376 263, 252.953 263 C 266.639 263, 278.548 262.727, 279.418 262.393 C 280.803 261.862, 281 258.629, 281 236.428 C 281 212.381, 280.900 211.017, 279.066 210.035 C 277.082 208.974, 232.876 208.666, 230 209.694 M 350.662 249.671 C 350.298 250.035, 350 253.183, 350 256.667 L 350 263 355.250 262.986 C 365.472 262.960, 367.457 261.073, 361.750 256.809 C 359.962 255.474, 356.885 253.173, 354.912 251.695 C 352.938 250.218, 351.026 249.307, 350.662 249.671 M 153.500 254.186 C 152.400 254.805, 149.778 256.656, 147.674 258.300 C 143.076 261.892, 144.007 262.962, 151.750 262.985 L 157 263 157 258 C 157 252.720, 156.695 252.388, 153.500 254.186 M 352.751 270.689 C 350.249 271.343, 349.887 273.879, 350.212 288.500 L 350.500 301.500 379.623 301.765 C 408.077 302.024, 413.657 301.619, 412.209 299.399 C 411.819 298.801, 402.009 291.942, 390.409 284.156 L 369.317 270 361.909 270.116 C 357.834 270.180, 353.713 270.438, 352.751 270.689 M 141.969 271.820 C 141.127 272.194, 133.252 277.264, 124.469 283.088 C 115.686 288.911, 106.362 294.916, 103.750 296.433 C 94.707 301.682, 96.022 302, 126.800 302 C 147.089 302, 154.924 301.676, 155.800 300.800 C 156.611 299.989, 157 295.356, 157 286.500 C 157 277.644, 156.611 273.011, 155.800 272.200 C 154.533 270.933, 144.582 270.660, 141.969 271.820 M 166.250 271.662 C 165.328 272.034, 165 276.086, 165 287.083 L 165 302 190.465 302 C 214.618 302, 215.983 301.900, 216.965 300.066 C 218.311 297.551, 218.311 275.449, 216.965 272.934 C 215.983 271.100, 214.675 271.004, 191.715 271.079 C 178.397 271.122, 166.938 271.385, 166.250 271.662 M 226.683 271.651 C 226.307 272.026, 226 278.503, 226 286.044 C 226 296.449, 226.331 300.030, 227.373 300.895 C 228.342 301.699, 236.370 301.956, 254.623 301.767 L 280.500 301.500 280.500 286.500 L 280.500 271.500 253.933 271.234 C 239.321 271.088, 227.058 271.275, 226.683 271.651 M 291.093 272.387 C 290.315 273.325, 290.033 278.268, 290.221 287.637 L 290.500 301.500 315 301.745 C 329.329 301.888, 340.123 301.592, 341 301.033 C 342.918 299.810, 343.795 276.354, 342.045 273.083 C 340.962 271.060, 340.231 271, 316.587 271 C 297.048 271, 292.018 271.274, 291.093 272.387 M 200.242 316.821 L 197.985 317.141 198.242 378.321 L 198.500 439.500 256.193 439.758 L 313.886 440.016 314.193 379.258 C 314.362 345.841, 314.139 318.050, 313.698 317.500 C 312.969 316.591, 206.356 315.953, 200.242 316.821 M 87.751 318.689 C 86.789 318.941, 85.763 320.126, 85.473 321.323 C 85.182 322.520, 85.069 341.950, 85.222 364.500 L 85.500 405.500 87.832 405.830 C 90.102 406.152, 90.146 406.014, 89.471 400.614 C 88.811 395.329, 88.924 394.922, 91.889 391.957 L 95 388.846 95 354.040 L 95 319.233 92.750 318.630 C 91.513 318.299, 90.275 318.073, 90 318.130 C 89.725 318.186, 88.713 318.438, 87.751 318.689 M 374.531 318.950 C 373.125 321.226, 378.668 322, 396.363 322 C 411.843 322, 415.113 322.256, 416.429 323.571 C 417.794 324.936, 418 329.474, 418 358.121 C 418 385.625, 418.251 391.586, 419.515 394.029 C 420.555 396.041, 420.825 398.244, 420.374 401.060 C 419.726 405.115, 419.751 405.156, 422.605 404.830 C 424.892 404.568, 425.623 403.878, 426.127 401.500 C 426.948 397.630, 427.195 321.671, 426.393 319.582 C 425.862 318.197, 422.631 318, 400.452 318 C 385.534 318, 374.877 318.391, 374.531 318.950 M 202 379 L 202 434 255.893 434 C 304.114 434, 309.850 433.834, 310.393 432.418 C 311.197 430.324, 311.180 331.149, 310.375 327.125 L 309.750 324 255.875 324 L 202 324 202 379 M 344.334 333.572 C 343.912 334.672, 344.484 379.124, 344.967 382.750 C 344.985 382.887, 345.608 383, 346.350 383 C 347.338 383, 347.875 380.544, 348.350 373.846 C 349.351 359.741, 349.123 336.099, 347.965 333.934 C 346.712 331.594, 345.153 331.438, 344.334 333.572 M 394.441 334.424 C 392.774 335.646, 392.505 337.064, 392.537 344.483 C 392.580 354.527, 393.060 355.147, 400.500 354.760 L 405.500 354.500 406.375 350.330 C 406.857 348.036, 406.934 343.624, 406.546 340.525 C 405.951 335.763, 405.458 334.744, 403.356 333.945 C 399.830 332.605, 396.692 332.773, 394.441 334.424 M 111.582 334.942 C 105.938 336.091, 104.872 338.109, 105.212 346.993 L 105.500 354.500 115.222 354.786 C 124.919 355.071, 124.946 355.065, 125.587 352.510 C 126.454 349.053, 125.640 337.240, 124.453 336.054 C 123.035 334.638, 116.043 334.034, 111.582 334.942 M 144.693 334.649 C 143.699 334.935, 142.462 336.285, 141.943 337.649 C 140.593 341.202, 140.770 352.370, 142.200 353.800 C 143.620 355.220, 153.844 355.384, 156 354.021 C 157.875 352.836, 158.156 337.756, 156.337 335.937 C 155.058 334.658, 147.552 333.828, 144.693 334.649 M 226.639 336.218 C 225.802 339.343, 225.948 371.552, 226.822 376.500 L 227.528 380.500 234.676 380.792 C 239.314 380.982, 242.237 381.581, 242.999 382.498 C 244.955 384.856, 243.161 386, 237.506 386 C 234.549 386, 230.976 386.439, 229.565 386.975 L 227 387.950 227 405.500 L 227 423.050 229.565 424.025 C 230.976 424.561, 235.910 425, 240.530 425 C 247.559 425, 249.060 424.714, 249.728 423.250 C 250.166 422.288, 250.295 401.925, 250.013 378 L 249.500 334.500 238.375 334.218 C 227.528 333.944, 227.234 333.994, 226.639 336.218 M 262.698 334.636 C 261.434 335.900, 261.868 422.800, 263.142 423.588 C 263.770 423.976, 268.406 424.509, 273.445 424.773 C 286.333 425.447, 286 425.947, 286 405.929 C 286 386.661, 285.670 386, 276.059 386 C 269.760 386, 267.999 384.912, 270.134 382.339 C 271.137 381.130, 272.650 380.891, 276.661 381.304 C 286.737 382.344, 286.075 384.066, 285.768 357.629 L 285.500 334.500 274.448 334.219 C 268.369 334.065, 263.081 334.252, 262.698 334.636 M 357.250 335.031 C 355.169 335.868, 355 336.562, 355 344.268 C 355 349.415, 355.459 353.059, 356.200 353.800 C 357.669 355.269, 374.601 355.454, 375.493 354.011 C 376.712 352.039, 376.340 337.115, 375.033 335.540 C 373.587 333.797, 361.202 333.443, 357.250 335.031 M 384 343.441 C 384 348.656, 384.448 353.159, 385 353.500 C 385.641 353.896, 386 350.510, 386 344.059 C 386 338.020, 385.600 334, 385 334 C 384.404 334, 384 337.814, 384 343.441 M 133 343.941 C 133 348.859, 133.450 353.160, 134 353.500 C 134.640 353.896, 135 350.677, 135 344.559 C 135 338.853, 134.597 335, 134 335 C 133.408 335, 133 338.647, 133 343.941 M 165.714 335.619 C 165.321 336.012, 165 346.785, 165 359.558 L 165 382.783 167.280 383.355 C 168.534 383.670, 170.567 383.664, 171.798 383.343 L 174.036 382.757 173.768 359.129 L 173.500 335.500 169.964 335.202 C 168.020 335.039, 166.107 335.226, 165.714 335.619 M 208.200 336.200 C 207.305 337.095, 207 348.006, 207 379.129 C 207 425.416, 206.794 424, 213.536 424 C 215.868 424, 217.254 423.395, 217.965 422.066 C 219.399 419.386, 219.374 343.113, 217.937 339.335 C 217.353 337.798, 216.341 336.201, 215.687 335.786 C 213.859 334.623, 209.538 334.862, 208.200 336.200 M 295 337 C 293.065 338.935, 293 340.333, 293 380.300 C 293 411.089, 293.305 421.905, 294.200 422.800 C 294.860 423.460, 297.121 424, 299.225 424 C 302.410 424, 303.213 423.571, 304.025 421.435 C 304.600 419.922, 305 402.312, 305 378.506 C 305 343.146, 304.805 337.948, 303.429 336.571 C 301.264 334.407, 297.397 334.603, 295 337 M 107.750 363.080 C 106.303 363.923, 106 365.555, 106 372.515 C 106 379.811, 106.257 381.067, 107.934 381.965 C 110.614 383.399, 122.323 383.277, 123.800 381.800 C 124.536 381.064, 125 377.467, 125 372.500 C 125 367.533, 124.536 363.936, 123.800 363.200 C 122.334 361.734, 110.217 361.643, 107.750 363.080 M 143.515 363.366 C 140.488 365.579, 140.029 382, 142.993 382 C 143.519 382, 144.647 380.650, 145.500 379 C 147.680 374.784, 151.515 374.824, 152.364 379.071 C 152.861 381.553, 153.412 382.080, 155.239 381.821 C 157.322 381.525, 157.523 380.918, 157.797 374.114 C 158.057 367.627, 157.823 366.440, 155.872 364.364 C 153.305 361.631, 146.624 361.092, 143.515 363.366 M 356.571 363.571 C 355.406 364.737, 355 367.200, 355 373.103 C 355 379.743, 355.290 381.182, 356.750 381.781 C 359.045 382.724, 373.622 382.712, 374.566 381.768 C 374.969 381.365, 375.512 377.708, 375.773 373.641 C 376.194 367.077, 376.009 366.009, 374.124 364.124 C 372.367 362.367, 370.801 362, 365.071 362 C 360.106 362, 357.698 362.445, 356.571 363.571 M 394.571 363.571 C 393.408 364.735, 393 367.194, 393 373.036 C 393 379.981, 393.247 381.062, 395.059 382.031 C 397.229 383.193, 402.607 382.488, 404.750 380.762 C 405.516 380.145, 406 377.267, 406 373.332 C 406 367.846, 405.642 366.551, 403.545 364.455 C 400.743 361.652, 396.872 361.271, 394.571 363.571 M 133 372.500 C 133 378.167, 133.404 382, 134 382 C 134.596 382, 135 378.167, 135 372.500 C 135 366.833, 134.596 363, 134 363 C 133.404 363, 133 366.833, 133 372.500 M 384 372.500 C 384 378.167, 384.404 382, 385 382 C 385.596 382, 386 378.167, 386 372.500 C 386 366.833, 385.596 363, 385 363 C 384.404 363, 384 366.833, 384 372.500 M 386.500 388.497 C 385.950 388.684, 383.863 389.109, 381.862 389.442 C 376.578 390.323, 372.823 394.439, 373.201 398.936 C 373.444 401.837, 373.872 402.453, 375.500 402.249 C 376.600 402.111, 382.225 401.358, 388 400.575 C 401.823 398.703, 409.839 398.667, 413.283 400.464 C 414.814 401.262, 415.800 401.485, 415.475 400.960 C 415.150 400.434, 415.679 398.659, 416.650 397.015 C 418.357 394.126, 418.350 393.974, 416.458 392.525 C 412.820 389.739, 404.838 387.998, 396.068 388.079 C 391.356 388.122, 387.050 388.311, 386.500 388.497 M 98.513 390.507 C 93.332 392.353, 91.833 394.482, 92.570 398.951 C 93.619 405.306, 93.619 405.306, 98.767 404.647 C 116.645 402.358, 125.972 402, 130.157 403.442 C 132.503 404.250, 134.642 404.691, 134.911 404.422 C 135.180 404.153, 135.400 402.376, 135.400 400.473 C 135.400 396.069, 132.283 391.840, 127.906 390.306 C 123.072 388.612, 103.458 388.747, 98.513 390.507 M 71.496 411.007 C 71.153 411.561, 71.543 412.271, 72.361 412.585 C 73.179 412.899, 90.061 413.008, 109.875 412.828 C 136.999 412.581, 146.211 412.191, 147.151 411.250 C 148.150 410.250, 140.771 410, 110.259 410 C 85.732 410, 71.896 410.359, 71.496 411.007 M 368.500 410.491 C 367.950 410.675, 366.271 411.096, 364.768 411.427 C 360.434 412.382, 355 417.725, 355 421.031 C 355 424.948, 359.089 427.994, 364.385 428.022 C 369.353 428.048, 375.625 430.786, 378.924 434.368 C 380.258 435.816, 381.750 437, 382.241 437 C 382.733 437, 384.573 435.475, 386.331 433.611 C 389.757 429.978, 393.988 428.443, 403.283 427.460 C 407.185 427.047, 409.914 426.118, 411.677 424.601 L 414.289 422.355 411.394 419.260 C 409.802 417.558, 405.800 414.779, 402.500 413.085 C 396.641 410.077, 396.183 410.006, 383 410.081 C 375.575 410.123, 369.050 410.308, 368.500 410.491 M 407.500 411 C 407.108 411.634, 410.289 412.077, 416.191 412.211 C 429.815 412.520, 432.019 412.381, 433.270 411.130 C 434.110 410.290, 431.025 410, 421.259 410 C 413.577 410, 407.861 410.415, 407.500 411 M 379.024 420.252 C 374.446 420.918, 369.253 422.761, 370.164 423.396 C 371.257 424.156, 397.023 422.338, 397.031 421.500 C 397.045 420.137, 385.368 419.328, 379.024 420.252 M 127.500 446.017 C 125.850 446.374, 123.060 447.416, 121.300 448.333 C 119.107 449.475, 115.632 450, 110.265 450 C 104.994 450, 100.569 450.654, 96.740 452 C 92.209 453.593, 88.487 454, 78.468 454 C 66.420 454, 57.580 455.252, 56.424 457.123 C 56.119 457.617, 65.852 457.969, 78.691 457.930 C 91.236 457.891, 100.623 457.516, 99.551 457.097 C 97.849 456.431, 98.025 456.187, 100.950 455.167 C 102.792 454.525, 107.151 454, 110.638 454 C 114.637 454, 118.921 453.246, 122.239 451.958 C 125.133 450.836, 130.537 449.645, 134.250 449.313 C 141.713 448.646, 143.022 447.414, 137.250 446.490 C 135.188 446.160, 132.825 445.773, 132 445.629 C 131.175 445.486, 129.150 445.660, 127.500 446.017 M 349.735 452.399 C 348.280 453.506, 330.821 453.691, 250.235 453.453 L 152.500 453.165 148.036 455.462 L 143.572 457.759 177.536 458.516 C 222.045 459.508, 395.148 458.576, 397.370 457.333 C 398.657 456.613, 397.195 455.968, 391.186 454.603 C 385.033 453.207, 381.155 452.960, 373.408 453.473 C 364.582 454.057, 357.465 453.422, 353 451.651 C 352.175 451.324, 350.706 451.661, 349.735 452.399" stroke="none" fill="#60a5fa" fill-rule="evenodd"/>
</svg>